<mxfile host="app.diagrams.net" modified="2024-06-19T02:32:25.535Z" agent="Mozilla/5.0 (Windows NT 10.0; Win64; x64) AppleWebKit/537.36 (KHTML, like Gecko) Chrome/125.0.0.0 Safari/537.36 Edg/125.0.0.0" etag="mIoAfv3guO_AifALXX36" version="24.5.5" type="github">
  <diagram name="第 1 页" id="S85ZerrEzWoBYQ2yGarr">
    <mxGraphModel dx="1631" dy="884" grid="1" gridSize="10" guides="1" tooltips="1" connect="1" arrows="1" fold="1" page="1" pageScale="1" pageWidth="827" pageHeight="1169" math="0" shadow="0">
      <root>
        <mxCell id="0" />
        <mxCell id="1" parent="0" />
        <mxCell id="85RPJdIF8Ax41SNlbjqJ-44" value="" style="group;movable=0;resizable=0;rotatable=0;deletable=0;editable=0;locked=1;connectable=0;" parent="1" vertex="1" connectable="0">
          <mxGeometry x="70" y="680" width="820" height="60" as="geometry" />
        </mxCell>
        <mxCell id="85RPJdIF8Ax41SNlbjqJ-2" value="" style="rounded=0;whiteSpace=wrap;html=1;fillColor=#91700C;strokeColor=#d6b656;movable=0;resizable=0;rotatable=0;deletable=0;editable=0;locked=1;connectable=0;" parent="85RPJdIF8Ax41SNlbjqJ-44" vertex="1">
          <mxGeometry width="120" height="60" as="geometry" />
        </mxCell>
        <mxCell id="85RPJdIF8Ax41SNlbjqJ-5" value="" style="rounded=0;whiteSpace=wrap;html=1;fillColor=#91700C;strokeColor=#d6b656;movable=0;resizable=0;rotatable=0;deletable=0;editable=0;locked=1;connectable=0;" parent="85RPJdIF8Ax41SNlbjqJ-44" vertex="1">
          <mxGeometry x="140" width="120" height="60" as="geometry" />
        </mxCell>
        <mxCell id="85RPJdIF8Ax41SNlbjqJ-10" value="" style="rounded=0;whiteSpace=wrap;html=1;fillColor=#91700C;strokeColor=#d6b656;movable=0;resizable=0;rotatable=0;deletable=0;editable=0;locked=1;connectable=0;" parent="85RPJdIF8Ax41SNlbjqJ-44" vertex="1">
          <mxGeometry x="280" width="120" height="60" as="geometry" />
        </mxCell>
        <mxCell id="85RPJdIF8Ax41SNlbjqJ-14" value="" style="rounded=0;whiteSpace=wrap;html=1;fillColor=#91700C;strokeColor=#d6b656;movable=0;resizable=0;rotatable=0;deletable=0;editable=0;locked=1;connectable=0;" parent="85RPJdIF8Ax41SNlbjqJ-44" vertex="1">
          <mxGeometry x="420" width="120" height="60" as="geometry" />
        </mxCell>
        <mxCell id="85RPJdIF8Ax41SNlbjqJ-15" value="" style="rounded=0;whiteSpace=wrap;html=1;fillColor=#91700C;strokeColor=#d6b656;movable=0;resizable=0;rotatable=0;deletable=0;editable=0;locked=1;connectable=0;" parent="85RPJdIF8Ax41SNlbjqJ-44" vertex="1">
          <mxGeometry x="560" width="120" height="60" as="geometry" />
        </mxCell>
        <mxCell id="85RPJdIF8Ax41SNlbjqJ-16" value="" style="rounded=0;whiteSpace=wrap;html=1;fillColor=#91700C;strokeColor=#d6b656;movable=0;resizable=0;rotatable=0;deletable=0;editable=0;locked=1;connectable=0;" parent="85RPJdIF8Ax41SNlbjqJ-44" vertex="1">
          <mxGeometry x="700" width="120" height="60" as="geometry" />
        </mxCell>
        <mxCell id="85RPJdIF8Ax41SNlbjqJ-45" value="" style="group;movable=0;resizable=0;rotatable=0;deletable=0;editable=0;locked=1;connectable=0;" parent="1" vertex="1" connectable="0">
          <mxGeometry x="70" y="780" width="820" height="60" as="geometry" />
        </mxCell>
        <mxCell id="85RPJdIF8Ax41SNlbjqJ-46" value="" style="rounded=0;whiteSpace=wrap;html=1;fillColor=#91700C;strokeColor=#d6b656;movable=0;resizable=0;rotatable=0;deletable=0;editable=0;locked=1;connectable=0;" parent="85RPJdIF8Ax41SNlbjqJ-45" vertex="1">
          <mxGeometry width="120" height="60" as="geometry" />
        </mxCell>
        <mxCell id="85RPJdIF8Ax41SNlbjqJ-47" value="" style="rounded=0;whiteSpace=wrap;html=1;fillColor=#91700C;strokeColor=#d6b656;movable=0;resizable=0;rotatable=0;deletable=0;editable=0;locked=1;connectable=0;" parent="85RPJdIF8Ax41SNlbjqJ-45" vertex="1">
          <mxGeometry x="140" width="120" height="60" as="geometry" />
        </mxCell>
        <mxCell id="85RPJdIF8Ax41SNlbjqJ-48" value="" style="rounded=0;whiteSpace=wrap;html=1;fillColor=#91700C;strokeColor=#d6b656;movable=0;resizable=0;rotatable=0;deletable=0;editable=0;locked=1;connectable=0;" parent="85RPJdIF8Ax41SNlbjqJ-45" vertex="1">
          <mxGeometry x="280" width="120" height="60" as="geometry" />
        </mxCell>
        <mxCell id="85RPJdIF8Ax41SNlbjqJ-49" value="" style="rounded=0;whiteSpace=wrap;html=1;fillColor=#91700C;strokeColor=#d6b656;movable=0;resizable=0;rotatable=0;deletable=0;editable=0;locked=1;connectable=0;" parent="85RPJdIF8Ax41SNlbjqJ-45" vertex="1">
          <mxGeometry x="420" width="120" height="60" as="geometry" />
        </mxCell>
        <mxCell id="85RPJdIF8Ax41SNlbjqJ-50" value="" style="rounded=0;whiteSpace=wrap;html=1;fillColor=#91700C;strokeColor=#d6b656;movable=0;resizable=0;rotatable=0;deletable=0;editable=0;locked=1;connectable=0;" parent="85RPJdIF8Ax41SNlbjqJ-45" vertex="1">
          <mxGeometry x="560" width="120" height="60" as="geometry" />
        </mxCell>
        <mxCell id="85RPJdIF8Ax41SNlbjqJ-51" value="" style="rounded=0;whiteSpace=wrap;html=1;fillColor=#91700C;strokeColor=#d6b656;movable=0;resizable=0;rotatable=0;deletable=0;editable=0;locked=1;connectable=0;" parent="85RPJdIF8Ax41SNlbjqJ-45" vertex="1">
          <mxGeometry x="700" width="120" height="60" as="geometry" />
        </mxCell>
        <mxCell id="85RPJdIF8Ax41SNlbjqJ-52" value="" style="group;movable=0;resizable=0;rotatable=0;deletable=0;editable=0;locked=1;connectable=0;" parent="1" vertex="1" connectable="0">
          <mxGeometry x="70" y="880" width="820" height="90" as="geometry" />
        </mxCell>
        <mxCell id="85RPJdIF8Ax41SNlbjqJ-53" value="" style="rounded=0;whiteSpace=wrap;html=1;fillColor=#91700C;strokeColor=#d6b656;movable=0;resizable=0;rotatable=0;deletable=0;editable=0;locked=1;connectable=0;" parent="85RPJdIF8Ax41SNlbjqJ-52" vertex="1">
          <mxGeometry width="120" height="60" as="geometry" />
        </mxCell>
        <mxCell id="85RPJdIF8Ax41SNlbjqJ-54" value="" style="rounded=0;whiteSpace=wrap;html=1;fillColor=#91700C;strokeColor=#d6b656;movable=0;resizable=0;rotatable=0;deletable=0;editable=0;locked=1;connectable=0;" parent="85RPJdIF8Ax41SNlbjqJ-52" vertex="1">
          <mxGeometry x="140" width="120" height="60" as="geometry" />
        </mxCell>
        <mxCell id="85RPJdIF8Ax41SNlbjqJ-55" value="" style="rounded=0;whiteSpace=wrap;html=1;fillColor=#91700C;strokeColor=#d6b656;movable=0;resizable=0;rotatable=0;deletable=0;editable=0;locked=1;connectable=0;" parent="85RPJdIF8Ax41SNlbjqJ-52" vertex="1">
          <mxGeometry x="280" width="120" height="60" as="geometry" />
        </mxCell>
        <mxCell id="85RPJdIF8Ax41SNlbjqJ-56" value="" style="rounded=0;whiteSpace=wrap;html=1;fillColor=#91700C;strokeColor=#d6b656;movable=0;resizable=0;rotatable=0;deletable=0;editable=0;locked=1;connectable=0;" parent="85RPJdIF8Ax41SNlbjqJ-52" vertex="1">
          <mxGeometry x="420" width="120" height="60" as="geometry" />
        </mxCell>
        <mxCell id="85RPJdIF8Ax41SNlbjqJ-57" value="" style="rounded=0;whiteSpace=wrap;html=1;fillColor=#91700C;strokeColor=#d6b656;movable=0;resizable=0;rotatable=0;deletable=0;editable=0;locked=1;connectable=0;" parent="85RPJdIF8Ax41SNlbjqJ-52" vertex="1">
          <mxGeometry x="560" width="120" height="60" as="geometry" />
        </mxCell>
        <mxCell id="85RPJdIF8Ax41SNlbjqJ-58" value="" style="rounded=0;whiteSpace=wrap;html=1;fillColor=#91700C;strokeColor=#d6b656;movable=0;resizable=0;rotatable=0;deletable=0;editable=0;locked=1;connectable=0;" parent="85RPJdIF8Ax41SNlbjqJ-52" vertex="1">
          <mxGeometry x="700" width="120" height="60" as="geometry" />
        </mxCell>
        <mxCell id="85RPJdIF8Ax41SNlbjqJ-59" value="" style="group;movable=0;resizable=0;rotatable=0;deletable=0;editable=0;locked=1;connectable=0;" parent="1" vertex="1" connectable="0">
          <mxGeometry x="70" y="980" width="820" height="60" as="geometry" />
        </mxCell>
        <mxCell id="85RPJdIF8Ax41SNlbjqJ-60" value="" style="rounded=0;whiteSpace=wrap;html=1;fillColor=#91700C;strokeColor=#d6b656;movable=0;resizable=0;rotatable=0;deletable=0;editable=0;locked=1;connectable=0;" parent="85RPJdIF8Ax41SNlbjqJ-59" vertex="1">
          <mxGeometry width="120" height="60" as="geometry" />
        </mxCell>
        <mxCell id="85RPJdIF8Ax41SNlbjqJ-61" value="" style="rounded=0;whiteSpace=wrap;html=1;fillColor=#91700C;strokeColor=#d6b656;movable=0;resizable=0;rotatable=0;deletable=0;editable=0;locked=1;connectable=0;" parent="85RPJdIF8Ax41SNlbjqJ-59" vertex="1">
          <mxGeometry x="140" width="120" height="60" as="geometry" />
        </mxCell>
        <mxCell id="85RPJdIF8Ax41SNlbjqJ-62" value="" style="rounded=0;whiteSpace=wrap;html=1;fillColor=#91700C;strokeColor=#d6b656;movable=0;resizable=0;rotatable=0;deletable=0;editable=0;locked=1;connectable=0;" parent="85RPJdIF8Ax41SNlbjqJ-59" vertex="1">
          <mxGeometry x="280" width="120" height="60" as="geometry" />
        </mxCell>
        <mxCell id="85RPJdIF8Ax41SNlbjqJ-63" value="" style="rounded=0;whiteSpace=wrap;html=1;fillColor=#91700C;strokeColor=#d6b656;movable=0;resizable=0;rotatable=0;deletable=0;editable=0;locked=1;connectable=0;" parent="85RPJdIF8Ax41SNlbjqJ-59" vertex="1">
          <mxGeometry x="420" width="120" height="60" as="geometry" />
        </mxCell>
        <mxCell id="85RPJdIF8Ax41SNlbjqJ-64" value="" style="rounded=0;whiteSpace=wrap;html=1;fillColor=#91700C;strokeColor=#d6b656;movable=0;resizable=0;rotatable=0;deletable=0;editable=0;locked=1;connectable=0;" parent="85RPJdIF8Ax41SNlbjqJ-59" vertex="1">
          <mxGeometry x="560" width="120" height="60" as="geometry" />
        </mxCell>
        <mxCell id="85RPJdIF8Ax41SNlbjqJ-65" value="" style="rounded=0;whiteSpace=wrap;html=1;fillColor=#91700C;strokeColor=#d6b656;movable=0;resizable=0;rotatable=0;deletable=0;editable=0;locked=1;connectable=0;" parent="85RPJdIF8Ax41SNlbjqJ-59" vertex="1">
          <mxGeometry x="700" width="120" height="60" as="geometry" />
        </mxCell>
        <mxCell id="85RPJdIF8Ax41SNlbjqJ-66" value="" style="group;movable=0;resizable=0;rotatable=0;deletable=0;editable=0;locked=1;connectable=0;" parent="1" vertex="1" connectable="0">
          <mxGeometry x="70" y="1080" width="820" height="60" as="geometry" />
        </mxCell>
        <mxCell id="85RPJdIF8Ax41SNlbjqJ-67" value="" style="rounded=0;whiteSpace=wrap;html=1;fillColor=#91700C;strokeColor=#d6b656;movable=0;resizable=0;rotatable=0;deletable=0;editable=0;locked=1;connectable=0;" parent="85RPJdIF8Ax41SNlbjqJ-66" vertex="1">
          <mxGeometry width="120" height="60" as="geometry" />
        </mxCell>
        <mxCell id="85RPJdIF8Ax41SNlbjqJ-68" value="" style="rounded=0;whiteSpace=wrap;html=1;fillColor=#91700C;strokeColor=#d6b656;movable=0;resizable=0;rotatable=0;deletable=0;editable=0;locked=1;connectable=0;" parent="85RPJdIF8Ax41SNlbjqJ-66" vertex="1">
          <mxGeometry x="140" width="120" height="60" as="geometry" />
        </mxCell>
        <mxCell id="85RPJdIF8Ax41SNlbjqJ-69" value="" style="rounded=0;whiteSpace=wrap;html=1;fillColor=#91700C;strokeColor=#d6b656;movable=0;resizable=0;rotatable=0;deletable=0;editable=0;locked=1;connectable=0;" parent="85RPJdIF8Ax41SNlbjqJ-66" vertex="1">
          <mxGeometry x="280" width="120" height="60" as="geometry" />
        </mxCell>
        <mxCell id="85RPJdIF8Ax41SNlbjqJ-70" value="" style="rounded=0;whiteSpace=wrap;html=1;fillColor=#91700C;strokeColor=#d6b656;movable=0;resizable=0;rotatable=0;deletable=0;editable=0;locked=1;connectable=0;" parent="85RPJdIF8Ax41SNlbjqJ-66" vertex="1">
          <mxGeometry x="420" width="120" height="60" as="geometry" />
        </mxCell>
        <mxCell id="85RPJdIF8Ax41SNlbjqJ-71" value="" style="rounded=0;whiteSpace=wrap;html=1;fillColor=#91700C;strokeColor=#d6b656;movable=0;resizable=0;rotatable=0;deletable=0;editable=0;locked=1;connectable=0;" parent="85RPJdIF8Ax41SNlbjqJ-66" vertex="1">
          <mxGeometry x="560" width="120" height="60" as="geometry" />
        </mxCell>
        <mxCell id="85RPJdIF8Ax41SNlbjqJ-72" value="" style="rounded=0;whiteSpace=wrap;html=1;fillColor=#91700C;strokeColor=#d6b656;movable=0;resizable=0;rotatable=0;deletable=0;editable=0;locked=1;connectable=0;" parent="85RPJdIF8Ax41SNlbjqJ-66" vertex="1">
          <mxGeometry x="700" width="120" height="60" as="geometry" />
        </mxCell>
        <mxCell id="85RPJdIF8Ax41SNlbjqJ-73" value="" style="group;movable=0;resizable=0;rotatable=0;deletable=0;editable=0;locked=1;connectable=0;" parent="1" vertex="1" connectable="0">
          <mxGeometry x="70" y="1180" width="820" height="60" as="geometry" />
        </mxCell>
        <mxCell id="85RPJdIF8Ax41SNlbjqJ-74" value="" style="rounded=0;whiteSpace=wrap;html=1;fillColor=#91700C;strokeColor=#d6b656;movable=0;resizable=0;rotatable=0;deletable=0;editable=0;locked=1;connectable=0;" parent="85RPJdIF8Ax41SNlbjqJ-73" vertex="1">
          <mxGeometry width="120" height="60" as="geometry" />
        </mxCell>
        <mxCell id="85RPJdIF8Ax41SNlbjqJ-75" value="" style="rounded=0;whiteSpace=wrap;html=1;fillColor=#91700C;strokeColor=#d6b656;movable=0;resizable=0;rotatable=0;deletable=0;editable=0;locked=1;connectable=0;" parent="85RPJdIF8Ax41SNlbjqJ-73" vertex="1">
          <mxGeometry x="140" width="120" height="60" as="geometry" />
        </mxCell>
        <mxCell id="85RPJdIF8Ax41SNlbjqJ-76" value="" style="rounded=0;whiteSpace=wrap;html=1;fillColor=#91700C;strokeColor=#d6b656;movable=0;resizable=0;rotatable=0;deletable=0;editable=0;locked=1;connectable=0;" parent="85RPJdIF8Ax41SNlbjqJ-73" vertex="1">
          <mxGeometry x="280" width="120" height="60" as="geometry" />
        </mxCell>
        <mxCell id="85RPJdIF8Ax41SNlbjqJ-77" value="" style="rounded=0;whiteSpace=wrap;html=1;fillColor=#91700C;strokeColor=#d6b656;movable=0;resizable=0;rotatable=0;deletable=0;editable=0;locked=1;connectable=0;" parent="85RPJdIF8Ax41SNlbjqJ-73" vertex="1">
          <mxGeometry x="420" width="120" height="60" as="geometry" />
        </mxCell>
        <mxCell id="85RPJdIF8Ax41SNlbjqJ-78" value="" style="rounded=0;whiteSpace=wrap;html=1;fillColor=#91700C;strokeColor=#d6b656;movable=0;resizable=0;rotatable=0;deletable=0;editable=0;locked=1;connectable=0;" parent="85RPJdIF8Ax41SNlbjqJ-73" vertex="1">
          <mxGeometry x="560" width="120" height="60" as="geometry" />
        </mxCell>
        <mxCell id="85RPJdIF8Ax41SNlbjqJ-79" value="" style="rounded=0;whiteSpace=wrap;html=1;fillColor=#91700C;strokeColor=#d6b656;movable=0;resizable=0;rotatable=0;deletable=0;editable=0;locked=1;connectable=0;" parent="85RPJdIF8Ax41SNlbjqJ-73" vertex="1">
          <mxGeometry x="700" width="120" height="60" as="geometry" />
        </mxCell>
        <mxCell id="85RPJdIF8Ax41SNlbjqJ-84" value="" style="group;movable=0;resizable=0;rotatable=0;deletable=0;editable=0;locked=1;connectable=0;" parent="1" vertex="1" connectable="0">
          <mxGeometry x="9" y="610" width="931" height="770" as="geometry" />
        </mxCell>
        <mxCell id="85RPJdIF8Ax41SNlbjqJ-82" value="" style="endArrow=classic;html=1;rounded=0;" parent="85RPJdIF8Ax41SNlbjqJ-84" edge="1">
          <mxGeometry width="50" height="50" relative="1" as="geometry">
            <mxPoint x="1" as="sourcePoint" />
            <mxPoint x="931" as="targetPoint" />
          </mxGeometry>
        </mxCell>
        <mxCell id="85RPJdIF8Ax41SNlbjqJ-83" value="" style="endArrow=classic;html=1;rounded=0;" parent="85RPJdIF8Ax41SNlbjqJ-84" edge="1">
          <mxGeometry width="50" height="50" relative="1" as="geometry">
            <mxPoint x="1" as="sourcePoint" />
            <mxPoint y="770" as="targetPoint" />
          </mxGeometry>
        </mxCell>
        <mxCell id="85RPJdIF8Ax41SNlbjqJ-87" value="" style="endArrow=none;html=1;rounded=0;dashed=1;movable=0;resizable=0;rotatable=0;deletable=0;editable=0;locked=1;connectable=0;" parent="1" edge="1">
          <mxGeometry width="50" height="50" relative="1" as="geometry">
            <mxPoint x="25" y="761" as="sourcePoint" />
            <mxPoint x="935" y="760" as="targetPoint" />
          </mxGeometry>
        </mxCell>
        <mxCell id="85RPJdIF8Ax41SNlbjqJ-88" value="" style="endArrow=none;html=1;rounded=0;dashed=1;movable=0;resizable=0;rotatable=0;deletable=0;editable=0;locked=1;connectable=0;" parent="1" edge="1">
          <mxGeometry width="50" height="50" relative="1" as="geometry">
            <mxPoint x="30" y="861" as="sourcePoint" />
            <mxPoint x="940" y="860" as="targetPoint" />
          </mxGeometry>
        </mxCell>
        <mxCell id="85RPJdIF8Ax41SNlbjqJ-90" value="" style="rounded=0;whiteSpace=wrap;html=1;strokeWidth=2;strokeColor=#006600;fillColor=none;movable=1;resizable=1;rotatable=1;deletable=1;editable=1;locked=0;connectable=1;" parent="1" vertex="1">
          <mxGeometry x="65" y="662" width="445" height="310" as="geometry" />
        </mxCell>
        <mxCell id="85RPJdIF8Ax41SNlbjqJ-89" value="" style="endArrow=none;html=1;rounded=0;dashed=1;movable=0;resizable=0;rotatable=0;deletable=0;editable=0;locked=1;connectable=0;" parent="1" edge="1">
          <mxGeometry width="50" height="50" relative="1" as="geometry">
            <mxPoint x="25" y="961" as="sourcePoint" />
            <mxPoint x="935" y="960" as="targetPoint" />
          </mxGeometry>
        </mxCell>
        <mxCell id="85RPJdIF8Ax41SNlbjqJ-91" value="" style="endArrow=none;html=1;rounded=0;dashed=1;movable=0;resizable=0;rotatable=0;deletable=0;editable=0;locked=1;connectable=0;" parent="1" edge="1">
          <mxGeometry width="50" height="50" relative="1" as="geometry">
            <mxPoint x="30" y="661" as="sourcePoint" />
            <mxPoint x="940" y="660" as="targetPoint" />
          </mxGeometry>
        </mxCell>
        <mxCell id="85RPJdIF8Ax41SNlbjqJ-93" value="" style="endArrow=none;dashed=1;html=1;dashPattern=1 3;strokeWidth=2;rounded=0;" parent="1" edge="1">
          <mxGeometry width="50" height="50" relative="1" as="geometry">
            <mxPoint x="50" y="840" as="sourcePoint" />
            <mxPoint x="50" y="640" as="targetPoint" />
          </mxGeometry>
        </mxCell>
        <mxCell id="85RPJdIF8Ax41SNlbjqJ-94" value="" style="endArrow=none;dashed=1;html=1;dashPattern=1 3;strokeWidth=2;rounded=0;" parent="1" edge="1">
          <mxGeometry width="50" height="50" relative="1" as="geometry">
            <mxPoint x="200" y="1180" as="sourcePoint" />
            <mxPoint x="200" y="980" as="targetPoint" />
          </mxGeometry>
        </mxCell>
        <mxCell id="85RPJdIF8Ax41SNlbjqJ-95" value="" style="endArrow=none;dashed=1;html=1;dashPattern=1 3;strokeWidth=2;rounded=0;" parent="1" edge="1">
          <mxGeometry width="50" height="50" relative="1" as="geometry">
            <mxPoint x="210" y="1190" as="sourcePoint" />
            <mxPoint x="210" y="990" as="targetPoint" />
          </mxGeometry>
        </mxCell>
        <mxCell id="85RPJdIF8Ax41SNlbjqJ-96" value="" style="endArrow=none;dashed=1;html=1;dashPattern=1 3;strokeWidth=2;rounded=0;" parent="1" edge="1">
          <mxGeometry width="50" height="50" relative="1" as="geometry">
            <mxPoint x="200" y="830" as="sourcePoint" />
            <mxPoint x="200" y="630" as="targetPoint" />
          </mxGeometry>
        </mxCell>
        <mxCell id="QmxcnJicYE2JuXU5Kt_q-1" value="切割道" style="text;html=1;align=center;verticalAlign=middle;resizable=0;points=[];autosize=1;strokeColor=none;fillColor=none;" vertex="1" parent="1">
          <mxGeometry x="930" y="640" width="60" height="30" as="geometry" />
        </mxCell>
        <mxCell id="QmxcnJicYE2JuXU5Kt_q-3" value="" style="endArrow=none;dashed=1;html=1;dashPattern=1 3;strokeWidth=2;rounded=0;fillColor=#d80073;strokeColor=#009900;" edge="1" parent="1">
          <mxGeometry width="50" height="50" relative="1" as="geometry">
            <mxPoint x="190" y="972" as="sourcePoint" />
            <mxPoint x="940" y="972" as="targetPoint" />
          </mxGeometry>
        </mxCell>
        <mxCell id="QmxcnJicYE2JuXU5Kt_q-4" value="出现像素舍入误差" style="text;html=1;align=center;verticalAlign=middle;resizable=0;points=[];autosize=1;strokeColor=none;fillColor=none;" vertex="1" parent="1">
          <mxGeometry x="950" y="950" width="120" height="30" as="geometry" />
        </mxCell>
      </root>
    </mxGraphModel>
  </diagram>
</mxfile>
